<mxfile host="app.diagrams.net" modified="2023-11-13T14:31:31.105Z" agent="Mozilla/5.0 (Windows NT 10.0; Win64; x64) AppleWebKit/537.36 (KHTML, like Gecko) Chrome/119.0.0.0 Safari/537.36" etag="CvY_XP6fa6pyPa7kz_Nk" version="22.1.0" type="device">
  <diagram name="Trang-1" id="GBOJhQjjhQh65Ea0KcBk">
    <mxGraphModel dx="1050" dy="534" grid="1" gridSize="10" guides="1" tooltips="1" connect="1" arrows="1" fold="1" page="1" pageScale="1" pageWidth="827" pageHeight="1169" math="0" shadow="0">
      <root>
        <mxCell id="0" />
        <mxCell id="1" parent="0" />
        <mxCell id="X8XDYqamWr00XCrjEFpe-2" value="" style="rounded=0;whiteSpace=wrap;html=1;" parent="1" vertex="1">
          <mxGeometry x="370" y="170" width="950" height="610" as="geometry" />
        </mxCell>
        <mxCell id="X8XDYqamWr00XCrjEFpe-3" value="alt update teacher" style="shape=umlFrame;whiteSpace=wrap;html=1;width=160;height=30;" parent="1" vertex="1">
          <mxGeometry x="425" y="411" width="865" height="239" as="geometry" />
        </mxCell>
        <mxCell id="X8XDYqamWr00XCrjEFpe-4" value="Admin" style="shape=umlActor;verticalLabelPosition=bottom;verticalAlign=top;html=1;" parent="1" vertex="1">
          <mxGeometry x="426" y="190" width="30" height="60" as="geometry" />
        </mxCell>
        <mxCell id="X8XDYqamWr00XCrjEFpe-5" style="edgeStyle=orthogonalEdgeStyle;rounded=0;orthogonalLoop=1;jettySize=auto;html=1;dashed=1;endArrow=none;endFill=0;" parent="1" source="X8XDYqamWr00XCrjEFpe-4" edge="1">
          <mxGeometry relative="1" as="geometry">
            <mxPoint x="440" y="660" as="targetPoint" />
          </mxGeometry>
        </mxCell>
        <mxCell id="X8XDYqamWr00XCrjEFpe-6" value="View" style="shape=umlLifeline;perimeter=lifelinePerimeter;container=1;collapsible=0;recursiveResize=0;rounded=0;shadow=0;strokeWidth=1;" parent="1" vertex="1">
          <mxGeometry x="545" y="190" width="100" height="470" as="geometry" />
        </mxCell>
        <mxCell id="X8XDYqamWr00XCrjEFpe-7" value="" style="html=1;points=[];perimeter=orthogonalPerimeter;" parent="X8XDYqamWr00XCrjEFpe-6" vertex="1">
          <mxGeometry x="45" y="140" width="10" height="300" as="geometry" />
        </mxCell>
        <mxCell id="X8XDYqamWr00XCrjEFpe-8" value="[Invalid not found]" style="text;html=1;align=center;verticalAlign=middle;resizable=0;points=[];autosize=1;strokeColor=none;fillColor=none;" parent="X8XDYqamWr00XCrjEFpe-6" vertex="1">
          <mxGeometry x="-90" y="260" width="120" height="30" as="geometry" />
        </mxCell>
        <mxCell id="X8XDYqamWr00XCrjEFpe-9" value="StudentController" style="shape=umlLifeline;perimeter=lifelinePerimeter;container=1;collapsible=0;recursiveResize=0;rounded=0;shadow=0;strokeWidth=1;" parent="1" vertex="1">
          <mxGeometry x="695" y="190" width="120" height="470" as="geometry" />
        </mxCell>
        <mxCell id="X8XDYqamWr00XCrjEFpe-10" value="" style="html=1;points=[];perimeter=orthogonalPerimeter;" parent="X8XDYqamWr00XCrjEFpe-9" vertex="1">
          <mxGeometry x="55" y="160" width="10" height="280" as="geometry" />
        </mxCell>
        <mxCell id="X8XDYqamWr00XCrjEFpe-11" value="9.Return invalid view" style="html=1;verticalAlign=bottom;endArrow=open;dashed=1;endSize=8;exitX=-0.055;exitY=0.291;exitDx=0;exitDy=0;exitPerimeter=0;" parent="X8XDYqamWr00XCrjEFpe-9" target="X8XDYqamWr00XCrjEFpe-7" edge="1">
          <mxGeometry x="-0.0033" relative="1" as="geometry">
            <mxPoint x="55" y="280" as="sourcePoint" />
            <mxPoint x="-94" y="281" as="targetPoint" />
            <mxPoint as="offset" />
          </mxGeometry>
        </mxCell>
        <mxCell id="X8XDYqamWr00XCrjEFpe-12" value="3. editStudent()" style="html=1;verticalAlign=bottom;endArrow=block;entryX=0;entryY=0;entryDx=0;entryDy=0;entryPerimeter=0;" parent="X8XDYqamWr00XCrjEFpe-9" target="X8XDYqamWr00XCrjEFpe-15" edge="1">
          <mxGeometry x="0.0667" width="80" relative="1" as="geometry">
            <mxPoint x="65" y="170" as="sourcePoint" />
            <mxPoint x="215" y="170" as="targetPoint" />
            <mxPoint as="offset" />
          </mxGeometry>
        </mxCell>
        <mxCell id="X8XDYqamWr00XCrjEFpe-14" value="StudentService" style="shape=umlLifeline;perimeter=lifelinePerimeter;container=1;collapsible=0;recursiveResize=0;rounded=0;shadow=0;strokeWidth=1;" parent="1" vertex="1">
          <mxGeometry x="860" y="190" width="110" height="470" as="geometry" />
        </mxCell>
        <mxCell id="X8XDYqamWr00XCrjEFpe-15" value="" style="html=1;points=[];perimeter=orthogonalPerimeter;" parent="X8XDYqamWr00XCrjEFpe-14" vertex="1">
          <mxGeometry x="50" y="170" width="10" height="270" as="geometry" />
        </mxCell>
        <mxCell id="X8XDYqamWr00XCrjEFpe-16" value="&lt;b&gt;8&lt;/b&gt;.Return invalid view" style="html=1;verticalAlign=bottom;endArrow=open;dashed=1;endSize=8;exitX=-0.055;exitY=0.291;exitDx=0;exitDy=0;exitPerimeter=0;" parent="X8XDYqamWr00XCrjEFpe-14" target="X8XDYqamWr00XCrjEFpe-10" edge="1">
          <mxGeometry x="-0.0033" relative="1" as="geometry">
            <mxPoint x="50" y="270" as="sourcePoint" />
            <mxPoint x="-99" y="271" as="targetPoint" />
            <mxPoint as="offset" />
          </mxGeometry>
        </mxCell>
        <mxCell id="X8XDYqamWr00XCrjEFpe-19" value="StudentRepository" style="shape=umlLifeline;perimeter=lifelinePerimeter;container=1;collapsible=0;recursiveResize=0;rounded=0;shadow=0;strokeWidth=1;" parent="1" vertex="1">
          <mxGeometry x="1010" y="190" width="130" height="470" as="geometry" />
        </mxCell>
        <mxCell id="X8XDYqamWr00XCrjEFpe-20" value="" style="html=1;points=[];perimeter=orthogonalPerimeter;" parent="X8XDYqamWr00XCrjEFpe-19" vertex="1">
          <mxGeometry x="60" y="180" width="10" height="260" as="geometry" />
        </mxCell>
        <mxCell id="X8XDYqamWr00XCrjEFpe-22" value="4. findStudentById()" style="html=1;verticalAlign=bottom;endArrow=block;entryX=0;entryY=0;entryDx=0;entryDy=0;entryPerimeter=0;" parent="X8XDYqamWr00XCrjEFpe-19" edge="1">
          <mxGeometry x="-0.0667" width="80" relative="1" as="geometry">
            <mxPoint x="-90" y="180" as="sourcePoint" />
            <mxPoint x="60" y="180" as="targetPoint" />
            <mxPoint as="offset" />
          </mxGeometry>
        </mxCell>
        <mxCell id="X8XDYqamWr00XCrjEFpe-23" value="7.Return null" style="html=1;verticalAlign=bottom;endArrow=open;dashed=1;endSize=8;exitX=-0.055;exitY=0.291;exitDx=0;exitDy=0;exitPerimeter=0;" parent="X8XDYqamWr00XCrjEFpe-19" edge="1">
          <mxGeometry x="-0.0033" relative="1" as="geometry">
            <mxPoint x="59" y="260" as="sourcePoint" />
            <mxPoint x="-90" y="261" as="targetPoint" />
            <mxPoint as="offset" />
          </mxGeometry>
        </mxCell>
        <mxCell id="X8XDYqamWr00XCrjEFpe-25" value="Database" style="shape=umlLifeline;perimeter=lifelinePerimeter;container=1;collapsible=0;recursiveResize=0;rounded=0;shadow=0;strokeWidth=1;" parent="1" vertex="1">
          <mxGeometry x="1185" y="190" width="100" height="470" as="geometry" />
        </mxCell>
        <mxCell id="X8XDYqamWr00XCrjEFpe-26" value="" style="html=1;points=[];perimeter=orthogonalPerimeter;" parent="X8XDYqamWr00XCrjEFpe-25" vertex="1">
          <mxGeometry x="45" y="190" width="10" height="250" as="geometry" />
        </mxCell>
        <mxCell id="X8XDYqamWr00XCrjEFpe-27" value="1. Click button&amp;nbsp;&quot;Edit Student&quot;" style="html=1;verticalAlign=bottom;endArrow=block;entryX=0.007;entryY=0.001;entryDx=0;entryDy=0;entryPerimeter=0;" parent="1" target="X8XDYqamWr00XCrjEFpe-7" edge="1">
          <mxGeometry x="-0.0672" y="1" width="80" relative="1" as="geometry">
            <mxPoint x="440" y="332" as="sourcePoint" />
            <mxPoint x="585" y="330" as="targetPoint" />
            <mxPoint as="offset" />
          </mxGeometry>
        </mxCell>
        <mxCell id="X8XDYqamWr00XCrjEFpe-28" value="2.editStudent()" style="html=1;verticalAlign=bottom;endArrow=block;entryX=0.038;entryY=0.002;entryDx=0;entryDy=0;entryPerimeter=0;" parent="1" source="X8XDYqamWr00XCrjEFpe-7" target="X8XDYqamWr00XCrjEFpe-10" edge="1">
          <mxGeometry x="-0.069" y="1" width="80" relative="1" as="geometry">
            <mxPoint x="605" y="350" as="sourcePoint" />
            <mxPoint x="750" y="350" as="targetPoint" />
            <mxPoint as="offset" />
          </mxGeometry>
        </mxCell>
        <mxCell id="X8XDYqamWr00XCrjEFpe-29" value="" style="endArrow=none;dashed=1;html=1;rounded=0;entryX=0.999;entryY=0.324;entryDx=0;entryDy=0;entryPerimeter=0;" parent="1" target="X8XDYqamWr00XCrjEFpe-3" edge="1">
          <mxGeometry width="50" height="50" relative="1" as="geometry">
            <mxPoint x="425" y="489.99999999999994" as="sourcePoint" />
            <mxPoint x="1275" y="489.99999999999994" as="targetPoint" />
          </mxGeometry>
        </mxCell>
        <mxCell id="X8XDYqamWr00XCrjEFpe-33" value="5. executeQuery()" style="html=1;verticalAlign=bottom;endArrow=block;entryX=0;entryY=0;entryDx=0;entryDy=0;entryPerimeter=0;" parent="1" edge="1">
          <mxGeometry x="-0.0667" width="80" relative="1" as="geometry">
            <mxPoint x="1080" y="380" as="sourcePoint" />
            <mxPoint x="1230" y="380" as="targetPoint" />
            <mxPoint as="offset" />
          </mxGeometry>
        </mxCell>
        <mxCell id="X8XDYqamWr00XCrjEFpe-34" value="6.Return null" style="html=1;verticalAlign=bottom;endArrow=open;dashed=1;endSize=8;exitX=-0.055;exitY=0.291;exitDx=0;exitDy=0;exitPerimeter=0;" parent="1" edge="1">
          <mxGeometry x="-0.0033" relative="1" as="geometry">
            <mxPoint x="1229" y="438" as="sourcePoint" />
            <mxPoint x="1080" y="439" as="targetPoint" />
            <mxPoint as="offset" />
          </mxGeometry>
        </mxCell>
        <mxCell id="X8XDYqamWr00XCrjEFpe-37" value="12.Return result" style="html=1;verticalAlign=bottom;endArrow=open;dashed=1;endSize=8;exitX=0.08;exitY=0.731;exitDx=0;exitDy=0;exitPerimeter=0;entryX=1;entryY=0.741;entryDx=0;entryDy=0;entryPerimeter=0;" parent="1" source="X8XDYqamWr00XCrjEFpe-26" target="X8XDYqamWr00XCrjEFpe-20" edge="1">
          <mxGeometry x="-0.0055" relative="1" as="geometry">
            <mxPoint x="1229" y="620" as="sourcePoint" />
            <mxPoint x="1080" y="621" as="targetPoint" />
            <mxPoint as="offset" />
          </mxGeometry>
        </mxCell>
        <mxCell id="X8XDYqamWr00XCrjEFpe-38" value="14.Return result" style="html=1;verticalAlign=bottom;endArrow=open;dashed=1;endSize=8;exitX=-0.08;exitY=0.843;exitDx=0;exitDy=0;exitPerimeter=0;entryX=1.12;entryY=0.846;entryDx=0;entryDy=0;entryPerimeter=0;" parent="1" source="X8XDYqamWr00XCrjEFpe-15" target="X8XDYqamWr00XCrjEFpe-10" edge="1">
          <mxGeometry x="-0.0067" relative="1" as="geometry">
            <mxPoint x="909" y="660" as="sourcePoint" />
            <mxPoint x="760" y="661" as="targetPoint" />
            <mxPoint as="offset" />
          </mxGeometry>
        </mxCell>
        <mxCell id="X8XDYqamWr00XCrjEFpe-39" value="16.Display message update" style="html=1;verticalAlign=bottom;endArrow=open;dashed=1;endSize=8;exitX=0;exitY=0.971;exitDx=0;exitDy=0;exitPerimeter=0;" parent="1" source="X8XDYqamWr00XCrjEFpe-7" edge="1">
          <mxGeometry x="-0.0067" relative="1" as="geometry">
            <mxPoint x="589" y="700" as="sourcePoint" />
            <mxPoint x="440" y="620" as="targetPoint" />
            <mxPoint as="offset" />
          </mxGeometry>
        </mxCell>
        <mxCell id="X8XDYqamWr00XCrjEFpe-40" value="[Valid]" style="text;html=1;align=center;verticalAlign=middle;resizable=0;points=[];autosize=1;strokeColor=none;fillColor=none;" parent="1" vertex="1">
          <mxGeometry x="485" y="500" width="60" height="30" as="geometry" />
        </mxCell>
        <mxCell id="X8XDYqamWr00XCrjEFpe-24" value="10. update()" style="html=1;verticalAlign=bottom;endArrow=block;exitX=1.12;exitY=0.582;exitDx=0;exitDy=0;exitPerimeter=0;" parent="1" source="X8XDYqamWr00XCrjEFpe-15" edge="1">
          <mxGeometry x="0.0938" y="5" width="80" relative="1" as="geometry">
            <mxPoint x="920" y="610" as="sourcePoint" />
            <mxPoint x="1070" y="516" as="targetPoint" />
            <mxPoint as="offset" />
          </mxGeometry>
        </mxCell>
        <mxCell id="v88lgusMqom9HIV9KJ6a-2" value="11. executeUpdate()" style="html=1;verticalAlign=bottom;endArrow=block;exitX=1.2;exitY=0.646;exitDx=0;exitDy=0;exitPerimeter=0;" parent="1" source="X8XDYqamWr00XCrjEFpe-20" edge="1">
          <mxGeometry x="-0.0667" width="80" relative="1" as="geometry">
            <mxPoint x="1090" y="390" as="sourcePoint" />
            <mxPoint x="1230" y="538" as="targetPoint" />
            <mxPoint as="offset" />
          </mxGeometry>
        </mxCell>
        <mxCell id="X8XDYqamWr00XCrjEFpe-18" value="13.Return result" style="html=1;verticalAlign=bottom;endArrow=open;dashed=1;endSize=8;exitX=-0.24;exitY=0.785;exitDx=0;exitDy=0;exitPerimeter=0;entryX=1.2;entryY=0.793;entryDx=0;entryDy=0;entryPerimeter=0;" parent="1" source="X8XDYqamWr00XCrjEFpe-20" target="X8XDYqamWr00XCrjEFpe-15" edge="1">
          <mxGeometry x="-0.0067" relative="1" as="geometry">
            <mxPoint x="1069" y="640" as="sourcePoint" />
            <mxPoint x="920" y="641" as="targetPoint" />
            <mxPoint as="offset" />
          </mxGeometry>
        </mxCell>
        <mxCell id="X8XDYqamWr00XCrjEFpe-13" value="15.Return valid view&amp;nbsp;" style="html=1;verticalAlign=bottom;endArrow=open;dashed=1;endSize=8;exitX=-0.08;exitY=0.9;exitDx=0;exitDy=0;exitPerimeter=0;entryX=1.2;entryY=0.904;entryDx=0;entryDy=0;entryPerimeter=0;" parent="1" source="X8XDYqamWr00XCrjEFpe-10" target="X8XDYqamWr00XCrjEFpe-7" edge="1">
          <mxGeometry x="-0.0067" relative="1" as="geometry">
            <mxPoint x="750" y="680" as="sourcePoint" />
            <mxPoint x="601" y="681" as="targetPoint" />
            <mxPoint as="offset" />
          </mxGeometry>
        </mxCell>
      </root>
    </mxGraphModel>
  </diagram>
</mxfile>
